<?xml version="1.0" encoding="UTF-8" standalone="no"?>
<!DOCTYPE svg PUBLIC "-//W3C//DTD SVG 1.1//EN"
 "http://www.w3.org/Graphics/SVG/1.1/DTD/svg11.dtd">
<!-- Generated by graphviz version 2.36.0 (20140111.2315)
 -->
<!-- Title: controllers_diagram Pages: 1 -->
<svg width="446pt" height="454pt"
 viewBox="0.00 0.00 446.00 454.00" xmlns="http://www.w3.org/2000/svg" xmlns:xlink="http://www.w3.org/1999/xlink">
<g id="graph0" class="graph" transform="scale(1 1) rotate(0) translate(4 450)">
<title>controllers_diagram</title>
<polygon fill="none" stroke="none" points="-4,4 -4,-450 442,-450 442,4 -4,4"/>
<!-- _diagram_info -->
<g id="node1" class="node"><title>_diagram_info</title>
<text text-anchor="start" x="232" y="-431.6" font-family="Times,serif" font-size="13.00">Controllers diagram</text>
<text text-anchor="start" x="232" y="-417.6" font-family="Times,serif" font-size="13.00">Date: Jun 07 2016 &#45; 12:45</text>
<text text-anchor="start" x="232" y="-403.6" font-family="Times,serif" font-size="13.00">Migration version: 20160517144145</text>
<text text-anchor="start" x="232" y="-389.6" font-family="Times,serif" font-size="13.00">Generated by RailRoady 1.4.2</text>
<text text-anchor="start" x="232" y="-375.6" font-family="Times,serif" font-size="13.00">http://railroady.prestonlee.com</text>
</g>
<!-- HomeController -->
<g id="node2" class="node"><title>HomeController</title>
<path fill="none" stroke="black" d="M188,-0.5C188,-0.5 270,-0.5 270,-0.5 276,-0.5 282,-6.5 282,-12.5 282,-12.5 282,-81.5 282,-81.5 282,-87.5 276,-93.5 270,-93.5 270,-93.5 188,-93.5 188,-93.5 182,-93.5 176,-87.5 176,-81.5 176,-81.5 176,-12.5 176,-12.5 176,-6.5 182,-0.5 188,-0.5"/>
<text text-anchor="middle" x="229" y="-78.3" font-family="Times,serif" font-size="14.00">HomeController</text>
<polyline fill="none" stroke="black" points="176,-70.5 282,-70.5 "/>
<text text-anchor="start" x="184" y="-55.3" font-family="Times,serif" font-size="14.00">index</text>
<polyline fill="none" stroke="black" points="176,-47.5 282,-47.5 "/>
<polyline fill="none" stroke="black" points="176,-23.5 282,-23.5 "/>
<text text-anchor="start" x="184" y="-8.3" font-family="Times,serif" font-size="14.00">_layout</text>
</g>
<!-- ProjectsController -->
<g id="node3" class="node"><title>ProjectsController</title>
<path fill="none" stroke="black" d="M188,-128.5C188,-128.5 280,-128.5 280,-128.5 286,-128.5 292,-134.5 292,-140.5 292,-140.5 292,-329.5 292,-329.5 292,-335.5 286,-341.5 280,-341.5 280,-341.5 188,-341.5 188,-341.5 182,-341.5 176,-335.5 176,-329.5 176,-329.5 176,-140.5 176,-140.5 176,-134.5 182,-128.5 188,-128.5"/>
<text text-anchor="middle" x="234" y="-326.3" font-family="Times,serif" font-size="14.00">ProjectsController</text>
<polyline fill="none" stroke="black" points="176,-318.5 292,-318.5 "/>
<text text-anchor="start" x="184" y="-303.3" font-family="Times,serif" font-size="14.00">create</text>
<text text-anchor="start" x="184" y="-288.3" font-family="Times,serif" font-size="14.00">destroy</text>
<text text-anchor="start" x="184" y="-273.3" font-family="Times,serif" font-size="14.00">edit</text>
<text text-anchor="start" x="184" y="-258.3" font-family="Times,serif" font-size="14.00">index</text>
<text text-anchor="start" x="184" y="-243.3" font-family="Times,serif" font-size="14.00">new</text>
<text text-anchor="start" x="184" y="-228.3" font-family="Times,serif" font-size="14.00">show</text>
<text text-anchor="start" x="184" y="-213.3" font-family="Times,serif" font-size="14.00">update</text>
<polyline fill="none" stroke="black" points="176,-205.5 292,-205.5 "/>
<polyline fill="none" stroke="black" points="176,-181.5 292,-181.5 "/>
<text text-anchor="start" x="184" y="-166.3" font-family="Times,serif" font-size="14.00">_layout</text>
<text text-anchor="start" x="184" y="-151.3" font-family="Times,serif" font-size="14.00">project_params</text>
<text text-anchor="start" x="184" y="-136.3" font-family="Times,serif" font-size="14.00">set_project</text>
</g>
<!-- ExecutionsController -->
<g id="node4" class="node"><title>ExecutionsController</title>
<path fill="none" stroke="black" d="M12,-112.5C12,-112.5 134,-112.5 134,-112.5 140,-112.5 146,-118.5 146,-124.5 146,-124.5 146,-298.5 146,-298.5 146,-304.5 140,-310.5 134,-310.5 134,-310.5 12,-310.5 12,-310.5 6,-310.5 0,-304.5 0,-298.5 0,-298.5 0,-124.5 0,-124.5 0,-118.5 6,-112.5 12,-112.5"/>
<text text-anchor="middle" x="73" y="-295.3" font-family="Times,serif" font-size="14.00">ExecutionsController</text>
<polyline fill="none" stroke="black" points="0,-287.5 146,-287.5 "/>
<text text-anchor="start" x="8" y="-272.3" font-family="Times,serif" font-size="14.00">create</text>
<text text-anchor="start" x="8" y="-257.3" font-family="Times,serif" font-size="14.00">destroy</text>
<text text-anchor="start" x="8" y="-242.3" font-family="Times,serif" font-size="14.00">new</text>
<text text-anchor="start" x="8" y="-227.3" font-family="Times,serif" font-size="14.00">set_method_description</text>
<text text-anchor="start" x="8" y="-212.3" font-family="Times,serif" font-size="14.00">show</text>
<text text-anchor="start" x="8" y="-197.3" font-family="Times,serif" font-size="14.00">update</text>
<polyline fill="none" stroke="black" points="0,-189.5 146,-189.5 "/>
<polyline fill="none" stroke="black" points="0,-165.5 146,-165.5 "/>
<text text-anchor="start" x="8" y="-150.3" font-family="Times,serif" font-size="14.00">_layout</text>
<text text-anchor="start" x="8" y="-135.3" font-family="Times,serif" font-size="14.00">execution_params</text>
<text text-anchor="start" x="8" y="-120.3" font-family="Times,serif" font-size="14.00">set_execution</text>
</g>
<!-- ApplicationController -->
<g id="node5" class="node"><title>ApplicationController</title>
<path fill="none" stroke="black" d="M12,-336.5C12,-336.5 124,-336.5 124,-336.5 130,-336.5 136,-342.5 136,-348.5 136,-348.5 136,-418.5 136,-418.5 136,-424.5 130,-430.5 124,-430.5 124,-430.5 12,-430.5 12,-430.5 6,-430.5 0,-424.5 0,-418.5 0,-418.5 0,-348.5 0,-348.5 0,-342.5 6,-336.5 12,-336.5"/>
<text text-anchor="middle" x="68" y="-415.3" font-family="Times,serif" font-size="14.00">ApplicationController</text>
<polyline fill="none" stroke="black" points="0,-407.5 136,-407.5 "/>
<polyline fill="none" stroke="black" points="0,-383.5 136,-383.5 "/>
<polyline fill="none" stroke="black" points="0,-359.5 136,-359.5 "/>
<text text-anchor="start" x="8" y="-344.3" font-family="Times,serif" font-size="14.00">_layout</text>
</g>
</g>
</svg>
