<?xml version="1.0" encoding="UTF-8" standalone="no"?>
<!DOCTYPE svg PUBLIC "-//W3C//DTD SVG 1.1//EN"
 "http://www.w3.org/Graphics/SVG/1.1/DTD/svg11.dtd">
<!-- Generated by graphviz version 2.36.0 (20140111.2315)
 -->
<!-- Title: models_diagram Pages: 1 -->
<svg width="552pt" height="614pt"
 viewBox="0.00 0.00 552.00 614.00" xmlns="http://www.w3.org/2000/svg" xmlns:xlink="http://www.w3.org/1999/xlink">
<g id="graph0" class="graph" transform="scale(1 1) rotate(0) translate(4 610)">
<title>models_diagram</title>
<polygon fill="none" stroke="none" points="-4,4 -4,-610 548,-610 548,4 -4,4"/>
<!-- _diagram_info -->
<g id="node1" class="node"><title>_diagram_info</title>
<text text-anchor="start" x="7" y="-516.6" font-family="Times,serif" font-size="13.00">Models diagram</text>
<text text-anchor="start" x="7" y="-502.6" font-family="Times,serif" font-size="13.00">Date: Jun 07 2016 &#45; 12:44</text>
<text text-anchor="start" x="7" y="-488.6" font-family="Times,serif" font-size="13.00">Migration version: 20160517144145</text>
<text text-anchor="start" x="7" y="-474.6" font-family="Times,serif" font-size="13.00">Generated by RailRoady 1.4.2</text>
<text text-anchor="start" x="7" y="-460.6" font-family="Times,serif" font-size="13.00">http://railroady.prestonlee.com</text>
</g>
<!-- Project -->
<g id="node2" class="node"><title>Project</title>
<path fill="none" stroke="black" d="M278,-205C278,-205 498,-205 498,-205 504,-205 510,-211 510,-217 510,-217 510,-329 510,-329 510,-335 504,-341 498,-341 498,-341 278,-341 278,-341 272,-341 266,-335 266,-329 266,-329 266,-217 266,-217 266,-211 272,-205 278,-205"/>
<text text-anchor="middle" x="388" y="-325.8" font-family="Times,serif" font-size="14.00">Project</text>
<polyline fill="none" stroke="black" points="266,-318 510,-318 "/>
<text text-anchor="start" x="274" y="-302.8" font-family="Times,serif" font-size="14.00">id :integer</text>
<text text-anchor="start" x="274" y="-287.8" font-family="Times,serif" font-size="14.00">name :character varying</text>
<text text-anchor="start" x="274" y="-272.8" font-family="Times,serif" font-size="14.00">description :character varying</text>
<text text-anchor="start" x="274" y="-257.8" font-family="Times,serif" font-size="14.00">user_id :integer</text>
<text text-anchor="start" x="274" y="-242.8" font-family="Times,serif" font-size="14.00">created_at :timestamp without time zone</text>
<text text-anchor="start" x="274" y="-227.8" font-family="Times,serif" font-size="14.00">updated_at :timestamp without time zone</text>
<text text-anchor="start" x="274" y="-212.8" font-family="Times,serif" font-size="14.00">attachment :character varying</text>
</g>
<!-- Execution -->
<g id="node3" class="node"><title>Execution</title>
<path fill="none" stroke="black" d="M278,-1C278,-1 498,-1 498,-1 504,-1 510,-7 510,-13 510,-13 510,-155 510,-155 510,-161 504,-167 498,-167 498,-167 278,-167 278,-167 272,-167 266,-161 266,-155 266,-155 266,-13 266,-13 266,-7 272,-1 278,-1"/>
<text text-anchor="middle" x="388" y="-151.8" font-family="Times,serif" font-size="14.00">Execution</text>
<polyline fill="none" stroke="black" points="266,-144 510,-144 "/>
<text text-anchor="start" x="274" y="-128.8" font-family="Times,serif" font-size="14.00">id :integer</text>
<text text-anchor="start" x="274" y="-113.8" font-family="Times,serif" font-size="14.00">timespent :integer</text>
<text text-anchor="start" x="274" y="-98.8" font-family="Times,serif" font-size="14.00">status :character varying</text>
<text text-anchor="start" x="274" y="-83.8" font-family="Times,serif" font-size="14.00">project_id :integer</text>
<text text-anchor="start" x="274" y="-68.8" font-family="Times,serif" font-size="14.00">created_at :timestamp without time zone</text>
<text text-anchor="start" x="274" y="-53.8" font-family="Times,serif" font-size="14.00">updated_at :timestamp without time zone</text>
<text text-anchor="start" x="274" y="-38.8" font-family="Times,serif" font-size="14.00">selected_features :character varying</text>
<text text-anchor="start" x="274" y="-23.8" font-family="Times,serif" font-size="14.00">acuracy :double precision</text>
<text text-anchor="start" x="274" y="-8.8" font-family="Times,serif" font-size="14.00">method :character varying</text>
</g>
<!-- Project&#45;&gt;Execution -->
<g id="edge1" class="edge"><title>Project&#45;&gt;Execution</title>
<path fill="none" stroke="#9c6ca9" d="M388,-196.699C388,-190.35 388,-183.884 388,-177.426"/>
<ellipse fill="none" stroke="#9c6ca9" cx="388" cy="-200.753" rx="4" ry="4"/>
<polygon fill="#9c6ca9" stroke="#9c6ca9" points="388,-177.299 392.5,-167.299 388,-172.299 388,-167.299 388,-167.299 388,-167.299 388,-172.299 383.5,-167.299 388,-177.299 388,-177.299"/>
</g>
<!-- User -->
<g id="node4" class="node"><title>User</title>
<path fill="none" stroke="black" d="M243.5,-379C243.5,-379 532.5,-379 532.5,-379 538.5,-379 544.5,-385 544.5,-391 544.5,-391 544.5,-593 544.5,-593 544.5,-599 538.5,-605 532.5,-605 532.5,-605 243.5,-605 243.5,-605 237.5,-605 231.5,-599 231.5,-593 231.5,-593 231.5,-391 231.5,-391 231.5,-385 237.5,-379 243.5,-379"/>
<text text-anchor="middle" x="388" y="-589.8" font-family="Times,serif" font-size="14.00">User</text>
<polyline fill="none" stroke="black" points="231.5,-582 544.5,-582 "/>
<text text-anchor="start" x="239.5" y="-566.8" font-family="Times,serif" font-size="14.00">id :integer</text>
<text text-anchor="start" x="239.5" y="-551.8" font-family="Times,serif" font-size="14.00">email :character varying</text>
<text text-anchor="start" x="239.5" y="-536.8" font-family="Times,serif" font-size="14.00">encrypted_password :character varying</text>
<text text-anchor="start" x="239.5" y="-521.8" font-family="Times,serif" font-size="14.00">reset_password_token :character varying</text>
<text text-anchor="start" x="239.5" y="-506.8" font-family="Times,serif" font-size="14.00">reset_password_sent_at :timestamp without time zone</text>
<text text-anchor="start" x="239.5" y="-491.8" font-family="Times,serif" font-size="14.00">remember_created_at :timestamp without time zone</text>
<text text-anchor="start" x="239.5" y="-476.8" font-family="Times,serif" font-size="14.00">sign_in_count :integer</text>
<text text-anchor="start" x="239.5" y="-461.8" font-family="Times,serif" font-size="14.00">current_sign_in_at :timestamp without time zone</text>
<text text-anchor="start" x="239.5" y="-446.8" font-family="Times,serif" font-size="14.00">last_sign_in_at :timestamp without time zone</text>
<text text-anchor="start" x="239.5" y="-431.8" font-family="Times,serif" font-size="14.00">current_sign_in_ip :inet</text>
<text text-anchor="start" x="239.5" y="-416.8" font-family="Times,serif" font-size="14.00">last_sign_in_ip :inet</text>
<text text-anchor="start" x="239.5" y="-401.8" font-family="Times,serif" font-size="14.00">created_at :timestamp without time zone</text>
<text text-anchor="start" x="239.5" y="-386.8" font-family="Times,serif" font-size="14.00">updated_at :timestamp without time zone</text>
</g>
<!-- User&#45;&gt;Project -->
<g id="edge2" class="edge"><title>User&#45;&gt;Project</title>
<path fill="none" stroke="#dbca6e" d="M388,-370.587C388,-364.137 388,-357.742 388,-351.498"/>
<ellipse fill="none" stroke="#dbca6e" cx="388" cy="-374.686" rx="4" ry="4"/>
<polygon fill="#dbca6e" stroke="#dbca6e" points="388,-351.146 392.5,-341.146 388,-346.146 388,-341.146 388,-341.146 388,-341.146 388,-346.146 383.5,-341.146 388,-351.146 388,-351.146"/>
</g>
</g>
</svg>
